<?xml version="1.0" encoding="iso-8859-1"?>
<!-- Generator: Adobe Illustrator 19.0.0, SVG Export Plug-In . SVG Version: 6.00 Build 0)  -->
<svg xmlns="http://www.w3.org/2000/svg" xmlns:xlink="http://www.w3.org/1999/xlink" version="1.1" id="Layer_1" x="0px" y="0px" viewBox="0 0 504 504" style="enable-background:new 0 0 504 504;" xml:space="preserve">
<g>
	<g>
		<path d="M377.6,0H126C56.8,0,0,56.8,0,126.4V378c0,69.2,56.8,126,126,126h251.6c69.6,0,126.4-56.8,126.4-126.4V126.4    C504,56.8,447.2,0,377.6,0z M348,204.8c-7.6,2-78,56.4-82.8,69.6c-1.2,4.8,0,49.2,1.2,56c4.8,1.2,38,0,44.4,1.2l-0.8,14    c-6-0.4-48.4-0.4-72.8-0.4c-12.4,0-52,1.2-64,0.8l2.4-13.2c6.8-0.4,34.4,1.2,40.4-5.2c3.2-3.2,2-46.4,1.2-53.6    c-3.2-7.6-64.8-86-80.8-98H96v-20h140v2.8h0.4l-0.4,3.6V176h-43.2c18.8,28,46,62,57.2,78l56.4-50h-33.6l-4.8-20h122.8l-0.8,1.2    h0.4l-8.8,12.8c0,0,0,0.8-0.4,0.8L378,204h-22.8C352.4,204,350,204.4,348,204.8z M385.2,346.4l-10.4-0.8l-9.6-0.8V324l12,1.6    L388,326L385.2,346.4z M387.2,312l-18.8-1.6l-0.4-87.6c4.4,0.8,37.6,4,41.2,4L387.2,312z"/>
	</g>
</g>
<g>
</g>
<g>
</g>
<g>
</g>
<g>
</g>
<g>
</g>
<g>
</g>
<g>
</g>
<g>
</g>
<g>
</g>
<g>
</g>
<g>
</g>
<g>
</g>
<g>
</g>
<g>
</g>
<g>
</g>
</svg>
