<?xml version="1.0" encoding="iso-8859-1"?>
<!-- Generator: Adobe Illustrator 19.0.0, SVG Export Plug-In . SVG Version: 6.00 Build 0)  -->
<svg xmlns="http://www.w3.org/2000/svg" xmlns:xlink="http://www.w3.org/1999/xlink" version="1.1" id="Layer_1" x="0px" y="0px" viewBox="0 0 504.4 504.4" style="enable-background:new 0 0 504.4 504.4;" xml:space="preserve">
<g>
	<g>
		<path d="M254.8,265.4c0,0-0.4,0-0.8,0c-14,40.8-28,81.6-42,122.4c29.6,8.4,58.4,7.6,86.8-2C284,345.4,269.6,305.4,254.8,265.4z"/>
	</g>
</g>
<g>
	<g>
		<path d="M123.2,195.4c-0.4,0-0.4,0-0.8,0c-15.6,37.2-16.4,74.8-0.4,112.4c13.6,32,36.4,55.6,67.6,71.6c0.4,0,0.4-0.4,0.8-0.4    C168,317.4,145.6,256.6,123.2,195.4z"/>
	</g>
</g>
<g>
	<g>
		<path d="M338.8,211.8c-3.2-6-6.8-11.6-10.4-17.6c-3.2-5.6-5.6-11.6-6.4-18c-1.6-13.2,7.2-25.6,20.4-28c1.2-0.4,2.8-0.4,5.2-0.8    c-39.2-32.8-82.8-44.4-131.6-32c-34.8,8.8-61.6,28.8-82.4,59.2c7.6,0,14.4,0,20.8,0c8.4-0.4,16.8-1.2,25.2-1.6    c4-0.4,6.4,1.6,6.8,4.8c0.4,3.6-1.2,6-5.6,6.4c-1.2,0.4-2.4,0.4-3.6,0.4c-4,0.4-7.6,0.8-12,1.2c17.2,51.2,34.4,102,51.2,152.4    c0.8-0.4,1.2-0.8,1.2-1.2c10-29.6,20-59.2,29.6-89.2c0.4-1.2,0-3.2-0.4-4.4c-6.4-18.4-13.2-36.4-20-54.8c-0.8-2.4-2-3.2-4.4-3.2    c-4,0-8-0.8-12-1.2c-3.2-0.4-4.8-2.8-4.8-6c0.4-3.2,2.4-5.2,5.6-5.2c1.6,0,2.8,0.4,4.4,0.4c15.2,0.4,30.8,0.8,46,1.2    c8,0,16.4-0.8,24.4-1.2c3.6,0,6,2,6.4,5.2c0.4,3.2-1.6,5.6-4.8,6c-1.6,0.4-2.8,0.4-4.4,0.4c-4,0.4-8,0.8-12,1.2    c17.2,50.8,34,100.8,51.2,152c0.4-1.2,0.8-1.6,0.8-2c7.2-23.6,14-47.2,21.2-70.8C350,246.6,348.4,228.6,338.8,211.8z"/>
	</g>
</g>
<g>
	<g>
		<path d="M377.6,0.2H126.4C56.8,0.2,0,57,0,126.6v251.6c0,69.2,56.8,126,126.4,126H378c69.6,0,126.4-56.8,126.4-126.4V126.6    C504,57,447.2,0.2,377.6,0.2z M408,260.2c0,1.2,0,2,0,3.2c-1.2,20.8-6.4,40.8-16,59.2c-25.2,47.6-64,75.6-117.6,84.4    c-4.8,0.8-9.6,1.2-14.4,1.2h-16c-0.8,0-2,0-3.2,0c-20.8-1.2-40.4-6-58.4-15.6c-48-25.2-76-64-84.8-117.6    c-1.2-5.2-1.6-9.6-1.6-14.8v-16c0-0.8,0-2,0-3.2c1.2-21.2,6.4-41.2,16.4-59.6c25.2-47.2,64-74.8,116.8-83.6    c4.8-0.8,10-1.2,14.8-1.2h16c1.2,0,2,0,3.2,0c20.4,1.2,40,6,58.4,15.6c48,25.2,76.4,64,85.2,118c0.8,4.8,1.2,9.6,1.2,14.4V260.2z"/>
	</g>
</g>
<g>
	<g>
		<path d="M376.8,185.4c0.4,10.8,0.4,20.8-1.2,31.2c-2,11.6-5.6,22.8-9.6,34c-14,38.8-27.2,77.6-40.4,116.4c-0.8,2-1.6,4.4-2,6.4    c0.4,0,0.4,0.4,0.8,0.4c38-23.6,61.2-57.6,68-102C396.8,241.4,391.6,212.6,376.8,185.4z"/>
	</g>
</g>
<g>
</g>
<g>
</g>
<g>
</g>
<g>
</g>
<g>
</g>
<g>
</g>
<g>
</g>
<g>
</g>
<g>
</g>
<g>
</g>
<g>
</g>
<g>
</g>
<g>
</g>
<g>
</g>
<g>
</g>
</svg>
