<?xml version="1.0" encoding="iso-8859-1"?>
<!-- Generator: Adobe Illustrator 19.0.0, SVG Export Plug-In . SVG Version: 6.00 Build 0)  -->
<svg xmlns="http://www.w3.org/2000/svg" xmlns:xlink="http://www.w3.org/1999/xlink" version="1.1" id="Layer_1" x="0px" y="0px" viewBox="0 0 504.4 504.4" style="enable-background:new 0 0 504.4 504.4;" xml:space="preserve">
<g>
	<g>
		<path d="M377.6,0.2H126.4C56.8,0.2,0,57,0,126.6v251.6c0,69.2,56.8,126,126.4,126H378c69.6,0,126.4-56.8,126.4-126.4V126.6    C504,57,447.2,0.2,377.6,0.2z M397.2,181.4C379.6,279.8,281.6,363,252,381.8c-29.6,19.2-56.4-7.6-66.4-27.6    c-11.2-22.8-44.8-147.6-53.6-157.6c-8.8-10.4-35.2,10.4-35.2,10.4L84,190.2c0,0,53.6-63.6,94-71.2c43.6-8.8,43.6,65.6,54,106.8    c10,40,16.8,62.8,25.6,62.8c8.8,0,25.6-22.4,44-56.4c18.4-34-0.8-64.4-36.8-42.8C279.2,103.8,414.8,83,397.2,181.4z"/>
	</g>
</g>
<g>
</g>
<g>
</g>
<g>
</g>
<g>
</g>
<g>
</g>
<g>
</g>
<g>
</g>
<g>
</g>
<g>
</g>
<g>
</g>
<g>
</g>
<g>
</g>
<g>
</g>
<g>
</g>
<g>
</g>
</svg>
