<?xml version="1.0" encoding="iso-8859-1"?>
<!-- Generator: Adobe Illustrator 19.0.0, SVG Export Plug-In . SVG Version: 6.00 Build 0)  -->
<svg xmlns="http://www.w3.org/2000/svg" xmlns:xlink="http://www.w3.org/1999/xlink" version="1.1" id="Layer_1" x="0px" y="0px" viewBox="0 0 504 504" style="enable-background:new 0 0 504 504;" xml:space="preserve">
<g>
	<g>
		<path d="M377.6,0H126C56.8,0,0,56.8,0,126.4V378c0,69.2,56.8,126,126,126h251.6c69.6,0,126.4-56.8,126.4-126.4V126.4    C504,56.8,447.2,0,377.6,0z M251.6,185.2c-16.4,0-19.6,10.4-19.6,19.2v95.2c0,37.2-28,67.6-66.8,67.6S96,336.8,96,299.6V264h48    v35.6c0,8.8,6,19.6,20,19.6s20-11.2,20-19.6v-95.2c0-37.2,29.2-67.6,68-67.6s68,30.4,68,67.6v18l-29.6,10.4L272,222.4v-18    C272,195.6,267.6,185.2,251.6,185.2z M408,299.6c0,37.2-31.2,67.6-70,67.6s-66-29.2-66-66.4v-39.2l18.8,10.4l29.2-10.4v38    c0,8.8,5.2,19.6,20,19.6s20-10.8,20-19.6V260h48V299.6z"/>
	</g>
</g>
<g>
</g>
<g>
</g>
<g>
</g>
<g>
</g>
<g>
</g>
<g>
</g>
<g>
</g>
<g>
</g>
<g>
</g>
<g>
</g>
<g>
</g>
<g>
</g>
<g>
</g>
<g>
</g>
<g>
</g>
</svg>
