<?xml version="1.0" encoding="iso-8859-1"?>
<!-- Generator: Adobe Illustrator 19.0.0, SVG Export Plug-In . SVG Version: 6.00 Build 0)  -->
<svg xmlns="http://www.w3.org/2000/svg" xmlns:xlink="http://www.w3.org/1999/xlink" version="1.1" id="Layer_1" x="0px" y="0px" viewBox="0 0 504.4 504.4" style="enable-background:new 0 0 504.4 504.4;" xml:space="preserve">
<g>
	<g>
		<polygon points="220,284.2 220,331.4 284,340.6 284,284.2   "/>
	</g>
</g>
<g>
	<g>
		<polygon points="164,284.2 164,324.2 216,331 216,284.2   "/>
	</g>
</g>
<g>
	<g>
		<polygon points="164,238.6 164,276.2 216,276.2 216,231.8   "/>
	</g>
</g>
<g>
	<g>
		<polygon points="220,231.4 220,276.2 284,276.2 284,222.2   "/>
	</g>
</g>
<g>
	<g>
		<path d="M377.6,0.2H126.4C56.8,0.2,0,57,0,126.6v251.6c0,69.2,56.8,126,126.4,126H378c69.6,0,126.4-56.8,126.4-126.4V126.6    C504,57,447.2,0.2,377.6,0.2z M300,150.6v5.2l-8,1.6v-6.8c0-18.4,1.2-27.2-20.4-24c-0.4-2.8-1.2-5.6-1.6-8    C296,114.6,300,122.2,300,150.6z M176,140.2c0-34,21.2-38.8,41.6-43.6c37.6-8.4,46.4,10.8,46.4,36.8v29.2l-8,1.6v-31.6    c0-13.6-3.2-35.2-36.8-27.2c-22.4,5.2-35.2,12.4-35.2,35.2v37.2l-8,2.4V140.2z M248,132.2c-12,5.2-16,8.8-16,26.4v10.8l-8,1.6    v-12.4c0-26,9.6-30,23.6-34.8C248,126.2,248,129,248,132.2z M388,393l-45.2,16.4L116,364.6V202.2l226.8-44.8l45.2,16.4V393z"/>
	</g>
</g>
<g>
</g>
<g>
</g>
<g>
</g>
<g>
</g>
<g>
</g>
<g>
</g>
<g>
</g>
<g>
</g>
<g>
</g>
<g>
</g>
<g>
</g>
<g>
</g>
<g>
</g>
<g>
</g>
<g>
</g>
</svg>
