<?xml version="1.0" encoding="iso-8859-1"?>
<!-- Generator: Adobe Illustrator 19.0.0, SVG Export Plug-In . SVG Version: 6.00 Build 0)  -->
<svg xmlns="http://www.w3.org/2000/svg" xmlns:xlink="http://www.w3.org/1999/xlink" version="1.1" id="Layer_1" x="0px" y="0px" viewBox="0 0 504.4 504.4" style="enable-background:new 0 0 504.4 504.4;" xml:space="preserve">
<g>
	<g>
		<path d="M215.2,384.2h-12c-5.2,0-9.6,0.8-12.4,4c-3.6,3.6-4.8,8-5.2,12h42.8C223.2,396.2,218.8,392.2,215.2,384.2z"/>
	</g>
</g>
<g>
	<g>
		<path d="M290,278.6c-11.6,3.6-24.4,5.2-38.4,5.2s-27.6-2-39.6-5.2c-0.8,0.4-1.2,0.4-2,0.8c0.4,64.8,4.4,121.2,41.6,121.2    c33.6,0,41.2-46,41.6-120.4C292,279.8,291.2,279,290,278.6z"/>
	</g>
</g>
<g>
	<g>
		<path d="M311.6,387.8c-2.8-2.8-6.4-3.6-11.2-3.6H288c-3.2,8-7.6,12-13.2,16h42.4C316.8,396.2,315.6,391.4,311.6,387.8z"/>
	</g>
</g>
<g>
	<g>
		<path d="M202,284.6c-12.4,8.4-20.4,20.4-20.4,33.6c0,14.4,9.2,27.6,25.2,36.8C203.2,335,202.4,310.6,202,284.6z"/>
	</g>
</g>
<g>
	<g>
		<path d="M302.4,285.8c-0.4,24.4-1.6,48.4-5.2,68.4c14.8-9.2,23.6-22,23.6-36C320.8,305.8,313.6,294.2,302.4,285.8z"/>
	</g>
</g>
<g>
	<g>
		<path d="M332.4,103.4c-7.2,0-13.2,6-13.2,12.8c-0.4,6.8,5.6,12.8,13.2,12.8c7.2,0,13.2-6,13.2-12.8    C345.6,109,339.6,103.4,332.4,103.4z"/>
	</g>
</g>
<g>
	<g>
		<path d="M163.2,169c-10,0-18.4,8-18.4,17.6c0,5.2,2.4,10,6.4,13.2c4-10,11.6-19.6,22.4-27.6C170.8,170.2,167.2,169,163.2,169z"/>
	</g>
</g>
<g>
	<g>
		<path d="M340.8,169.4c-4,0-7.6,1.2-10.4,3.2c10.4,8,18,17.6,22,28c4-3.2,6.8-8,6.8-13.6C358.8,177,350.8,169.4,340.8,169.4z"/>
	</g>
</g>
<g>
	<g>
		<path d="M251.6,157c-52.4,0-95.2,26.8-95.2,59.6c0,32.8,42.8,59.2,95.2,59.2c52.4,0,95.2-26.8,95.2-59.2    C347.2,183.8,304.4,157,251.6,157z M202.4,204.6c0-8.8,7.2-16,16.4-16s16.4,7.2,16.4,16c0,8.8-7.2,16-16.4,16    C210,220.2,202.4,213.4,202.4,204.6z M290.4,247.4c-0.4,0.4-12,12-38.8,12c-26.4,0-37.2-11.6-37.6-12.4c-1.6-1.6-1.2-4.4,0.4-5.6    c1.6-1.6,4.4-1.2,6,0.4c0.4,0.4,9.2,9.6,31.2,9.6c22.8,0,32.4-9.6,32.8-9.6c1.6-1.6,4.4-1.6,6,0C291.6,243,292,245.8,290.4,247.4z     M287.2,220.2c-9.2,0-16.4-7.2-16.4-16s7.2-16,16.4-16c9.2,0,16.4,7.2,16.4,16C303.2,213.4,296,220.2,287.2,220.2z"/>
	</g>
</g>
<g>
	<g>
		<path d="M377.6,0.2H126.4C56.8,0.2,0,57,0,126.6v251.6c0,69.2,56.8,126,126.4,126H378c69.6,0,126.4-56.8,126.4-126.4V126.6    C504,57,447.2,0.2,377.6,0.2z M354.8,208.6c0.4,2.4,0.8,5.2,0.8,7.6c0,25.2-21.6,47.6-53.2,58.8c0,0.4,0,0.4,0,0.8    c16.4,10.4,26.8,25.2,26.8,42.4c0,18.4-12.4,35.6-33.2,46l-0.4-1.2c-1.2,4.4-2.4,9.2-3.6,13.2h8.8c7.2,0,12.8,2.4,17.2,6.4    c8.4,8.4,8,21.6,8,22v3.2H177.2l-0.4-3.2c0-0.4-0.8-13.6,8-22c4.4-4.8,10.8-6.8,18.4-6.8h8.8c-1.2-4-2.4-7.6-3.2-11.6l-0.4,0.4    c-22-10.4-35.2-28-35.2-46.8c0-17.2,11.2-32.8,28-42.8c-31.6-11.2-53.2-33.2-53.2-58.8c0-2.8,0.4-5.2,0.8-8    c-7.6-4.8-12.4-12.8-12.4-21.6c0-14.4,12-26,26.4-26c6.4,0,12.4,2.4,17.2,6.4c18-11.2,42-18,68.4-18.4l18.4-51.2l45.2,10.8    c3.2-7.6,11.2-13.2,20-13.2c12,0,21.6,9.6,21.6,21.2s-9.6,21.2-21.6,21.2s-21.6-9.6-21.6-21.2l-37.6-8.8L257.6,149    c25.2,0.8,48.4,7.6,65.6,18.4c4.8-4,10.8-6.4,17.6-6.4c14.8,0,26.4,11.6,26.4,26C367.2,195.8,362.4,204.2,354.8,208.6z"/>
	</g>
</g>
<g>
</g>
<g>
</g>
<g>
</g>
<g>
</g>
<g>
</g>
<g>
</g>
<g>
</g>
<g>
</g>
<g>
</g>
<g>
</g>
<g>
</g>
<g>
</g>
<g>
</g>
<g>
</g>
<g>
</g>
</svg>
