<?xml version="1.0" encoding="iso-8859-1"?>
<!-- Generator: Adobe Illustrator 19.0.0, SVG Export Plug-In . SVG Version: 6.00 Build 0)  -->
<svg xmlns="http://www.w3.org/2000/svg" xmlns:xlink="http://www.w3.org/1999/xlink" version="1.1" id="Layer_1" x="0px" y="0px" viewBox="0 0 504 504" style="enable-background:new 0 0 504 504;" xml:space="preserve">
<g>
	<g>
		<path d="M152.4,229.2l9.2,3.2c-4.8-9.2-14.4-15.2-25.2-15.2c-16,0-28.8,13.2-28.8,29.2s12.8,29.2,28.8,29.2c2.8,0,5.6-0.4,8.4-1.2    l-13.6-4.8c-10.8-6-15.2-20-9.2-31.2C128,227.2,141.6,223.2,152.4,229.2z"/>
	</g>
</g>
<g>
	<g>
		<path d="M285.6,271.6c-2.4,0-4.8,0.4-6.8,0.8l17.2,6c10.8,6,15.2,20,9.2,31.2s-19.6,15.2-30.4,9.2l-18.8-6.4    c4,12.8,15.6,22,29.6,22c17.2,0,30.8-14,30.8-31.6C316.4,285.2,302.8,271.6,285.6,271.6z"/>
	</g>
</g>
<g>
	<g>
		<path d="M377.6,0H126C56.8,0,0,56.8,0,126.4V378c0,69.2,56.8,126,126,126h251.6c69.6,0,126.4-56.8,126.4-126.4V126.4    C504,56.8,447.2,0,377.6,0z M374,261.2l-35.2,30.4c0.4,2.4,0.8,4.8,0.8,7.6c0,26-20.8,47.2-46.4,47.2c-22,0-40.8-15.6-45.2-36.8    l-87.2-30c-6.8,5.2-15.6,8.4-24.8,8.4c-22.8,0-41.2-18.8-41.2-41.6s18.4-41.6,41.2-41.6c19.6,0,35.6,13.6,40,32.4l84,28.8    c8-8.4,19.6-13.6,32-14l12.8-38.8c0-0.8,0-1.6,0-2.4c0-29.2,23.6-53.2,52.4-53.2s52.4,24,52.4,53.2C409.2,234,394.4,254,374,261.2    z"/>
	</g>
</g>
<g>
	<g>
		<path d="M356.8,169.6c-22.8,0-40.8,18.4-40.8,41.2s18.4,41.2,40.8,41.2c22.4,0,40.8-18.4,40.8-41.2    C397.2,188,379.2,169.6,356.8,169.6z M356.4,240.8c-16,0-29.2-13.2-29.2-29.6c0-16.4,13.2-29.6,29.2-29.6s29.2,13.2,29.2,29.6    C385.6,227.6,372.8,240.8,356.4,240.8z"/>
	</g>
</g>
<g>
</g>
<g>
</g>
<g>
</g>
<g>
</g>
<g>
</g>
<g>
</g>
<g>
</g>
<g>
</g>
<g>
</g>
<g>
</g>
<g>
</g>
<g>
</g>
<g>
</g>
<g>
</g>
<g>
</g>
</svg>
