<?xml version="1.0" encoding="iso-8859-1"?>
<!-- Generator: Adobe Illustrator 19.0.0, SVG Export Plug-In . SVG Version: 6.00 Build 0)  -->
<svg xmlns="http://www.w3.org/2000/svg" xmlns:xlink="http://www.w3.org/1999/xlink" version="1.1" id="Layer_1" x="0px" y="0px" viewBox="0 0 504.4 504.4" style="enable-background:new 0 0 504.4 504.4;" xml:space="preserve">
<g>
	<g>
		<g>
			<path d="M377.6,0.2H126.4C56.8,0.2,0,57,0,126.6v251.6c0,69.2,56.8,126,126.4,126H378c69.6,0,126.4-56.8,126.4-126.4V126.6     C504,57,447.2,0.2,377.6,0.2z M344,351L344,351l-92,55.6L160,351v-20.4l27.6,18.4l64.8-54l64.4,54l27.2-18.4V351z M409.2,269     l-92.4,60.4l-64.8-54l-64.8,54L94.8,269l64-51.6l-64-51.6l92.4-60.4l64.8,54.4l64.8-54.4l92.4,60.4l-64,51.6L409.2,269z"/>
			<polygon points="158.8,217.4 252,275.4 345.2,217.4 252,159.8    "/>
		</g>
	</g>
</g>
<g>
</g>
<g>
</g>
<g>
</g>
<g>
</g>
<g>
</g>
<g>
</g>
<g>
</g>
<g>
</g>
<g>
</g>
<g>
</g>
<g>
</g>
<g>
</g>
<g>
</g>
<g>
</g>
<g>
</g>
</svg>
