<?xml version="1.0" encoding="iso-8859-1"?>
<!-- Generator: Adobe Illustrator 19.0.0, SVG Export Plug-In . SVG Version: 6.00 Build 0)  -->
<svg xmlns="http://www.w3.org/2000/svg" xmlns:xlink="http://www.w3.org/1999/xlink" version="1.1" id="Layer_1" x="0px" y="0px" viewBox="0 0 504.4 504.4" style="enable-background:new 0 0 504.4 504.4;" xml:space="preserve">
<g>
	<g>
		<path d="M377.6,0.2H126.4C56.8,0.2,0,57,0,126.6v251.6c0,69.2,56.8,126,126.4,126H378c69.6,0,126.4-56.8,126.4-126.4V126.6    C504,57,447.2,0.2,377.6,0.2z M340.8,372.6c-22.8,22.8-54.4,36.8-88.8,36.8s-66-14-88.8-36.8c-22.8-22.8-36.8-54.4-36.8-88.8    c0-2,0.8-4.4,1.2-6.4c0-0.8,0.8-1.6,0.8-2V110.6c0-8.8,5.2-15.6,14-15.6c8.8,0,14,7.2,14,15.6v90c4-2,4.4-4,6.4-6    c22.8-22.8,54.8-36.8,89.2-36.8c34.4,0,66.4,14,89.2,36.8c22.8,22.8,36.8,54,36.8,88.8C377.6,318.2,363.6,349.8,340.8,372.6z"/>
	</g>
</g>
<g>
	<g>
		<path d="M318.8,217c-17.2-17.2-40.8-27.6-66.8-27.6s-49.6,10.4-66.8,27.6s-27.6,40.8-27.6,66.8s10.4,49.6,27.6,66.8    s40.8,27.6,66.8,27.6s49.6-10.4,66.8-27.6c17.2-17.2,27.6-40.8,27.6-66.8S336,234.2,318.8,217z M205.6,316.2    c-15.2,0-28-12.4-28-28c0-15.2,12.4-28,28-28c15.2,0,28,12.4,28,28C233.2,303.8,220.8,316.2,205.6,316.2z"/>
	</g>
</g>
<g>
</g>
<g>
</g>
<g>
</g>
<g>
</g>
<g>
</g>
<g>
</g>
<g>
</g>
<g>
</g>
<g>
</g>
<g>
</g>
<g>
</g>
<g>
</g>
<g>
</g>
<g>
</g>
<g>
</g>
</svg>
